solid OpenSCAD_Model
  facet normal 1 0 0
    outer loop
      vertex 4.75 0.75 37.1
      vertex 4.75 0 20.5551
      vertex 4.75 0.75 19.5345
    endloop
  endfacet
  facet normal 1 -0 0
    outer loop
      vertex 4.75 -0.75 37.1
      vertex 4.75 0 20.5551
      vertex 4.75 0.75 37.1
    endloop
  endfacet
  facet normal 1 0 0
    outer loop
      vertex 4.75 0 20.5551
      vertex 4.75 -0.75 37.1
      vertex 4.75 -0.75 19.5345
    endloop
  endfacet
  facet normal 0 1 0
    outer loop
      vertex -0.75 0.75 38.1
      vertex -4.75 0.75 37.1
      vertex -3.75 0.75 38.1
    endloop
  endfacet
  facet normal 0 1 -0
    outer loop
      vertex -0.75 0.75 28.9618
      vertex -4.75 0.75 37.1
      vertex -0.75 0.75 38.1
    endloop
  endfacet
  facet normal 0 1 0
    outer loop
      vertex -4.75 0.75 37.1
      vertex -0.75 0.75 28.9618
      vertex -4.75 0.75 19.5345
    endloop
  endfacet
  facet normal 0 1 0
    outer loop
      vertex 4.75 0.75 37.1
      vertex 0.75 0.75 38.1
      vertex 3.75 0.75 38.1
    endloop
  endfacet
  facet normal 0 1 0
    outer loop
      vertex 4.75 0.75 37.1
      vertex 0.75 0.75 28.9618
      vertex 0.75 0.75 38.1
    endloop
  endfacet
  facet normal -0 1 0
    outer loop
      vertex 0.75 0.75 28.9618
      vertex 4.75 0.75 37.1
      vertex 4.75 0.75 19.5345
    endloop
  endfacet
  facet normal -1 0 0
    outer loop
      vertex -4.75 0 20.5551
      vertex -4.75 0.75 37.1
      vertex -4.75 0.75 19.5345
    endloop
  endfacet
  facet normal -1 0 0
    outer loop
      vertex -4.75 -0.75 37.1
      vertex -4.75 0 20.5551
      vertex -4.75 -0.75 19.5345
    endloop
  endfacet
  facet normal -1 0 0
    outer loop
      vertex -4.75 0 20.5551
      vertex -4.75 -0.75 37.1
      vertex -4.75 0.75 37.1
    endloop
  endfacet
  facet normal 0.707107 -0 0.707107
    outer loop
      vertex 3.75 -0.75 38.1
      vertex 4.75 0.75 37.1
      vertex 3.75 0.75 38.1
    endloop
  endfacet
  facet normal 0.707107 0 0.707107
    outer loop
      vertex 4.75 0.75 37.1
      vertex 3.75 -0.75 38.1
      vertex 4.75 -0.75 37.1
    endloop
  endfacet
  facet normal -0 0 1
    outer loop
      vertex -3.75 0.75 38.1
      vertex -0.75 -0.75 38.1
      vertex -0.75 0.75 38.1
    endloop
  endfacet
  facet normal 0 0 1
    outer loop
      vertex -0.75 -0.75 38.1
      vertex -3.75 0.75 38.1
      vertex -3.75 -0.75 38.1
    endloop
  endfacet
  facet normal 0 0 1
    outer loop
      vertex -0.75 0.75 38.1
      vertex 0.75 0.75 38.1
      vertex 0.75 3.75 38.1
    endloop
  endfacet
  facet normal 0 0 1
    outer loop
      vertex 0.75 0.75 38.1
      vertex -0.75 0.75 38.1
      vertex 0.75 -0.75 38.1
    endloop
  endfacet
  facet normal 0 0 1
    outer loop
      vertex -0.75 0.75 38.1
      vertex 0.75 3.75 38.1
      vertex -0.75 3.75 38.1
    endloop
  endfacet
  facet normal 0 0 1
    outer loop
      vertex -0.75 -0.75 38.1
      vertex 0.75 -0.75 38.1
      vertex -0.75 0.75 38.1
    endloop
  endfacet
  facet normal 0 0 1
    outer loop
      vertex 0.75 -0.75 38.1
      vertex -0.75 -0.75 38.1
      vertex 0.75 -3.75 38.1
    endloop
  endfacet
  facet normal 0 0 1
    outer loop
      vertex 0.75 -3.75 38.1
      vertex -0.75 -0.75 38.1
      vertex -0.75 -3.75 38.1
    endloop
  endfacet
  facet normal -0 0 1
    outer loop
      vertex 0.75 0.75 38.1
      vertex 3.75 -0.75 38.1
      vertex 3.75 0.75 38.1
    endloop
  endfacet
  facet normal 0 0 1
    outer loop
      vertex 3.75 -0.75 38.1
      vertex 0.75 0.75 38.1
      vertex 0.75 -0.75 38.1
    endloop
  endfacet
  facet normal 0 -1 0
    outer loop
      vertex -4.75 -0.75 37.1
      vertex -0.75 -0.75 38.1
      vertex -3.75 -0.75 38.1
    endloop
  endfacet
  facet normal 0 -1 0
    outer loop
      vertex -4.75 -0.75 37.1
      vertex -0.75 -0.75 28.9618
      vertex -0.75 -0.75 38.1
    endloop
  endfacet
  facet normal -0 -1 0
    outer loop
      vertex -0.75 -0.75 28.9618
      vertex -4.75 -0.75 37.1
      vertex -4.75 -0.75 19.5345
    endloop
  endfacet
  facet normal 0 -1 0
    outer loop
      vertex 0.75 -0.75 38.1
      vertex 4.75 -0.75 37.1
      vertex 3.75 -0.75 38.1
    endloop
  endfacet
  facet normal 0 -1 0
    outer loop
      vertex 0.75 -0.75 28.9618
      vertex 4.75 -0.75 37.1
      vertex 0.75 -0.75 38.1
    endloop
  endfacet
  facet normal 0 -1 -0
    outer loop
      vertex 4.75 -0.75 37.1
      vertex 0.75 -0.75 28.9618
      vertex 4.75 -0.75 19.5345
    endloop
  endfacet
  facet normal 0 0 -1
    outer loop
      vertex 4.04145 -7 0
      vertex 4.04145 7 0
      vertex 8.0829 0 0
    endloop
  endfacet
  facet normal 0 0 -1
    outer loop
      vertex -4.04145 -7 0
      vertex 4.04145 7 0
      vertex 4.04145 -7 0
    endloop
  endfacet
  facet normal 0 0 -1
    outer loop
      vertex -4.04145 -7 0
      vertex -4.04145 7 0
      vertex 4.04145 7 0
    endloop
  endfacet
  facet normal 0 -0 -1
    outer loop
      vertex -4.04145 7 0
      vertex -4.04145 -7 0
      vertex -8.0829 0 0
    endloop
  endfacet
  facet normal -0.707107 0 0.707107
    outer loop
      vertex -4.75 -0.75 37.1
      vertex -3.75 0.75 38.1
      vertex -4.75 0.75 37.1
    endloop
  endfacet
  facet normal -0.707107 0 0.707107
    outer loop
      vertex -3.75 0.75 38.1
      vertex -4.75 -0.75 37.1
      vertex -3.75 -0.75 38.1
    endloop
  endfacet
  facet normal -1 0 0
    outer loop
      vertex -0.75 -4.75 37.1
      vertex -0.75 -0.75 28.9618
      vertex -0.75 -1.29904 28.2148
    endloop
  endfacet
  facet normal -1 0 0
    outer loop
      vertex -0.75 -0.75 28.9618
      vertex -0.75 -4.75 37.1
      vertex -0.75 -0.75 38.1
    endloop
  endfacet
  facet normal -1 0 0
    outer loop
      vertex -0.75 -4.75 37.1
      vertex -0.75 -1.29904 28.2148
      vertex -0.75 -4.75 18.8232
    endloop
  endfacet
  facet normal -1 -0 0
    outer loop
      vertex -0.75 -0.75 38.1
      vertex -0.75 -4.75 37.1
      vertex -0.75 -3.75 38.1
    endloop
  endfacet
  facet normal -1 0 0
    outer loop
      vertex -0.75 1.29904 28.2148
      vertex -0.75 4.75 37.1
      vertex -0.75 4.75 18.8232
    endloop
  endfacet
  facet normal -1 0 0
    outer loop
      vertex -0.75 0.75 28.9618
      vertex -0.75 4.75 37.1
      vertex -0.75 1.29904 28.2148
    endloop
  endfacet
  facet normal -1 0 0
    outer loop
      vertex -0.75 0.75 38.1
      vertex -0.75 4.75 37.1
      vertex -0.75 0.75 28.9618
    endloop
  endfacet
  facet normal -1 0 0
    outer loop
      vertex -0.75 4.75 37.1
      vertex -0.75 0.75 38.1
      vertex -0.75 3.75 38.1
    endloop
  endfacet
  facet normal 0 -1 0
    outer loop
      vertex -0.75 -4.75 18.8232
      vertex 0.75 -4.75 37.1
      vertex -0.75 -4.75 37.1
    endloop
  endfacet
  facet normal 0 -1 -0
    outer loop
      vertex 0.75 -4.75 37.1
      vertex -0.75 -4.75 18.8232
      vertex 0.75 -4.75 18.8232
    endloop
  endfacet
  facet normal 0 0.707107 0.707107
    outer loop
      vertex 0.75 4.75 37.1
      vertex -0.75 3.75 38.1
      vertex 0.75 3.75 38.1
    endloop
  endfacet
  facet normal 0 0.707107 0.707107
    outer loop
      vertex -0.75 3.75 38.1
      vertex 0.75 4.75 37.1
      vertex -0.75 4.75 37.1
    endloop
  endfacet
  facet normal 0 1 -0
    outer loop
      vertex 0.75 4.75 18.8232
      vertex -0.75 4.75 37.1
      vertex 0.75 4.75 37.1
    endloop
  endfacet
  facet normal 0 1 0
    outer loop
      vertex -0.75 4.75 37.1
      vertex 0.75 4.75 18.8232
      vertex -0.75 4.75 18.8232
    endloop
  endfacet
  facet normal 1 -0 0
    outer loop
      vertex 0.75 -4.75 37.1
      vertex 0.75 -0.75 28.9618
      vertex 0.75 -0.75 38.1
    endloop
  endfacet
  facet normal 1 0 0
    outer loop
      vertex 0.75 -4.75 37.1
      vertex 0.75 -0.75 38.1
      vertex 0.75 -3.75 38.1
    endloop
  endfacet
  facet normal 1 0 0
    outer loop
      vertex 0.75 -0.75 28.9618
      vertex 0.75 -4.75 37.1
      vertex 0.75 -1.29904 28.2148
    endloop
  endfacet
  facet normal 1 0 0
    outer loop
      vertex 0.75 -1.29904 28.2148
      vertex 0.75 -4.75 37.1
      vertex 0.75 -4.75 18.8232
    endloop
  endfacet
  facet normal 1 -0 0
    outer loop
      vertex 0.75 0.75 38.1
      vertex 0.75 4.75 37.1
      vertex 0.75 3.75 38.1
    endloop
  endfacet
  facet normal 1 0 0
    outer loop
      vertex 0.75 4.75 37.1
      vertex 0.75 1.29904 28.2148
      vertex 0.75 4.75 18.8232
    endloop
  endfacet
  facet normal 1 0 0
    outer loop
      vertex 0.75 4.75 37.1
      vertex 0.75 0.75 38.1
      vertex 0.75 0.75 28.9618
    endloop
  endfacet
  facet normal 1 0 0
    outer loop
      vertex 0.75 4.75 37.1
      vertex 0.75 0.75 28.9618
      vertex 0.75 1.29904 28.2148
    endloop
  endfacet
  facet normal 0 -0.707107 0.707107
    outer loop
      vertex -0.75 -4.75 37.1
      vertex 0.75 -3.75 38.1
      vertex -0.75 -3.75 38.1
    endloop
  endfacet
  facet normal 0 -0.707107 0.707107
    outer loop
      vertex 0.75 -3.75 38.1
      vertex -0.75 -4.75 37.1
      vertex 0.75 -4.75 37.1
    endloop
  endfacet
  facet normal 0 -1 0
    outer loop
      vertex -4.04145 -7 0
      vertex 4.04145 -7 12.7
      vertex -4.04145 -7 12.7
    endloop
  endfacet
  facet normal 0 -1 -0
    outer loop
      vertex 4.04145 -7 12.7
      vertex -4.04145 -7 0
      vertex 4.04145 -7 0
    endloop
  endfacet
  facet normal 0.866026 -0.5 0
    outer loop
      vertex 4.04145 -7 12.7
      vertex 8.0829 0 0
      vertex 8.0829 0 12.7
    endloop
  endfacet
  facet normal 0.866026 -0.5 0
    outer loop
      vertex 8.0829 0 0
      vertex 4.04145 -7 12.7
      vertex 4.04145 -7 0
    endloop
  endfacet
  facet normal 0 1 -0
    outer loop
      vertex 4.04145 7 0
      vertex -4.04145 7 12.7
      vertex 4.04145 7 12.7
    endloop
  endfacet
  facet normal 0 1 0
    outer loop
      vertex -4.04145 7 12.7
      vertex 4.04145 7 0
      vertex -4.04145 7 0
    endloop
  endfacet
  facet normal 0.866026 0.5 0
    outer loop
      vertex 8.0829 0 12.7
      vertex 4.04145 7 0
      vertex 4.04145 7 12.7
    endloop
  endfacet
  facet normal 0.866026 0.5 0
    outer loop
      vertex 4.04145 7 0
      vertex 8.0829 0 12.7
      vertex 8.0829 0 0
    endloop
  endfacet
  facet normal -0.866026 0.5 0
    outer loop
      vertex -8.0829 0 0
      vertex -4.04145 7 12.7
      vertex -4.04145 7 0
    endloop
  endfacet
  facet normal -0.866026 0.5 0
    outer loop
      vertex -4.04145 7 12.7
      vertex -8.0829 0 0
      vertex -8.0829 0 12.7
    endloop
  endfacet
  facet normal -0.866026 -0.5 0
    outer loop
      vertex -4.04145 -7 0
      vertex -8.0829 0 12.7
      vertex -8.0829 0 0
    endloop
  endfacet
  facet normal -0.866026 -0.5 0
    outer loop
      vertex -8.0829 0 12.7
      vertex -4.04145 -7 0
      vertex -4.04145 -7 12.7
    endloop
  endfacet
  facet normal 0.812904 0.469276 0.344915
    outer loop
      vertex 4.75 0.75 19.5345
      vertex 0.75 1.29904 28.2148
      vertex 0.75 0.75 28.9618
    endloop
  endfacet
  facet normal 0.812886 0.469315 0.344904
    outer loop
      vertex 0.75 1.29904 28.2148
      vertex 4.75 0.75 19.5345
      vertex 4.04145 7 12.7
    endloop
  endfacet
  facet normal 0.812883 0.469318 0.344907
    outer loop
      vertex 4.75 0.75 19.5345
      vertex 8.0829 0 12.7
      vertex 4.04145 7 12.7
    endloop
  endfacet
  facet normal 0.812874 0.46934 0.3449
    outer loop
      vertex 8.0829 0 12.7
      vertex 4.75 0.75 19.5345
      vertex 4.75 0 20.5551
    endloop
  endfacet
  facet normal -0.812874 -0.46934 0.3449
    outer loop
      vertex -8.0829 0 12.7
      vertex -4.75 -0.75 19.5345
      vertex -4.75 0 20.5551
    endloop
  endfacet
  facet normal -0.812904 -0.469276 0.344915
    outer loop
      vertex -4.75 -0.75 19.5345
      vertex -0.75 -1.29904 28.2148
      vertex -0.75 -0.75 28.9618
    endloop
  endfacet
  facet normal -0.812886 -0.469315 0.344904
    outer loop
      vertex -4.75 -0.75 19.5345
      vertex -4.04145 -7 12.7
      vertex -0.75 -1.29904 28.2148
    endloop
  endfacet
  facet normal -0.812883 -0.469318 0.344907
    outer loop
      vertex -4.04145 -7 12.7
      vertex -4.75 -0.75 19.5345
      vertex -8.0829 0 12.7
    endloop
  endfacet
  facet normal 0.812904 -0.469276 0.344915
    outer loop
      vertex 0.75 -0.75 28.9618
      vertex 0.75 -1.29904 28.2148
      vertex 4.75 -0.75 19.5345
    endloop
  endfacet
  facet normal 0.812874 -0.46934 0.3449
    outer loop
      vertex 4.75 -0.75 19.5345
      vertex 8.0829 0 12.7
      vertex 4.75 0 20.5551
    endloop
  endfacet
  facet normal 0.812883 -0.469318 0.344907
    outer loop
      vertex 4.75 -0.75 19.5345
      vertex 4.04145 -7 12.7
      vertex 8.0829 0 12.7
    endloop
  endfacet
  facet normal 0.812886 -0.469315 0.344904
    outer loop
      vertex 4.04145 -7 12.7
      vertex 4.75 -0.75 19.5345
      vertex 0.75 -1.29904 28.2148
    endloop
  endfacet
  facet normal -0.812886 0.469315 0.344904
    outer loop
      vertex -4.04145 7 12.7
      vertex -4.75 0.75 19.5345
      vertex -0.75 1.29904 28.2148
    endloop
  endfacet
  facet normal -0.812883 0.469318 0.344907
    outer loop
      vertex -8.0829 0 12.7
      vertex -4.75 0.75 19.5345
      vertex -4.04145 7 12.7
    endloop
  endfacet
  facet normal -0.812874 0.46934 0.3449
    outer loop
      vertex -4.75 0.75 19.5345
      vertex -8.0829 0 12.7
      vertex -4.75 0 20.5551
    endloop
  endfacet
  facet normal -0.812904 0.469276 0.344915
    outer loop
      vertex -0.75 1.29904 28.2148
      vertex -4.75 0.75 19.5345
      vertex -0.75 0.75 28.9618
    endloop
  endfacet
  facet normal 0 0.938637 0.344907
    outer loop
      vertex 0.75 4.75 18.8232
      vertex 4.04145 7 12.7
      vertex -0.75 4.75 18.8232
    endloop
  endfacet
  facet normal -5.51814e-06 0.938638 0.344904
    outer loop
      vertex 4.04145 7 12.7
      vertex 0.75 4.75 18.8232
      vertex 0.75 1.29904 28.2148
    endloop
  endfacet
  facet normal 5.51814e-06 0.938638 0.344904
    outer loop
      vertex -0.75 4.75 18.8232
      vertex -4.04145 7 12.7
      vertex -0.75 1.29904 28.2148
    endloop
  endfacet
  facet normal -0 0.938637 0.344907
    outer loop
      vertex -4.04145 7 12.7
      vertex -0.75 4.75 18.8232
      vertex 4.04145 7 12.7
    endloop
  endfacet
  facet normal 0 -0.938637 0.344907
    outer loop
      vertex -0.75 -4.75 18.8232
      vertex -4.04145 -7 12.7
      vertex 0.75 -4.75 18.8232
    endloop
  endfacet
  facet normal 5.51814e-06 -0.938638 0.344904
    outer loop
      vertex -4.04145 -7 12.7
      vertex -0.75 -4.75 18.8232
      vertex -0.75 -1.29904 28.2148
    endloop
  endfacet
  facet normal -5.51814e-06 -0.938638 0.344904
    outer loop
      vertex 0.75 -4.75 18.8232
      vertex 4.04145 -7 12.7
      vertex 0.75 -1.29904 28.2148
    endloop
  endfacet
  facet normal 0 -0.938637 0.344907
    outer loop
      vertex 4.04145 -7 12.7
      vertex 0.75 -4.75 18.8232
      vertex -4.04145 -7 12.7
    endloop
  endfacet
endsolid OpenSCAD_Model
